<svg width="30" height="30" viewBox="0 0 30 30" fill="none" xmlns="http://www.w3.org/2000/svg">
<path d="M15 15C12.9375 15 11.1719 14.2656 9.70312 12.7969C8.23438 11.3281 7.5 9.5625 7.5 7.5C7.5 5.4375 8.23438 3.67188 9.70312 2.20313C11.1719 0.734375 12.9375 0 15 0C17.0625 0 18.8281 0.734375 20.2969 2.20313C21.7656 3.67188 22.5 5.4375 22.5 7.5C22.5 9.5625 21.7656 11.3281 20.2969 12.7969C18.8281 14.2656 17.0625 15 15 15ZM0 30V24.75C0 23.6875 0.273437 22.7109 0.820312 21.8203C1.36719 20.9297 2.09375 20.25 3 19.7812C4.9375 18.8125 6.90625 18.0859 8.90625 17.6016C10.9062 17.1172 12.9375 16.875 15 16.875C17.0625 16.875 19.0938 17.1172 21.0938 17.6016C23.0938 18.0859 25.0625 18.8125 27 19.7812C27.9063 20.25 28.6328 20.9297 29.1797 21.8203C29.7266 22.7109 30 23.6875 30 24.75V30H0ZM3.75 26.25H26.25V24.75C26.25 24.4062 26.1641 24.0938 25.9922 23.8125C25.8203 23.5312 25.5938 23.3125 25.3125 23.1562C23.625 22.3125 21.9219 21.6797 20.2031 21.2578C18.4844 20.8359 16.75 20.625 15 20.625C13.25 20.625 11.5156 20.8359 9.79688 21.2578C8.07812 21.6797 6.375 22.3125 4.6875 23.1562C4.40625 23.3125 4.17969 23.5312 4.00781 23.8125C3.83594 24.0938 3.75 24.4062 3.75 24.75V26.25ZM15 11.25C16.0312 11.25 16.9141 10.8828 17.6484 10.1484C18.3828 9.41406 18.75 8.53125 18.75 7.5C18.75 6.46875 18.3828 5.58594 17.6484 4.85156C16.9141 4.11719 16.0312 3.75 15 3.75C13.9688 3.75 13.0859 4.11719 12.3516 4.85156C11.6172 5.58594 11.25 6.46875 11.25 7.5C11.25 8.53125 11.6172 9.41406 12.3516 10.1484C13.0859 10.8828 13.9688 11.25 15 11.25Z" fill="#09233A"/>
</svg>
