<svg width="30" height="16" viewBox="0 0 30 16" fill="none" xmlns="http://www.w3.org/2000/svg">
<path d="M7.82609 10.6086C7.1087 10.6086 6.49457 10.3532 5.9837 9.84231C5.47283 9.33144 5.21739 8.71731 5.21739 7.99992C5.21739 7.28252 5.47283 6.66839 5.9837 6.15752C6.49457 5.64665 7.1087 5.39122 7.82609 5.39122C8.54348 5.39122 9.15761 5.64665 9.66848 6.15752C10.1793 6.66839 10.4348 7.28252 10.4348 7.99992C10.4348 8.71731 10.1793 9.33144 9.66848 9.84231C9.15761 10.3532 8.54348 10.6086 7.82609 10.6086ZM7.82609 15.826C5.65217 15.826 3.80435 15.0651 2.28261 13.5434C0.76087 12.0217 0 10.1738 0 7.99992C0 5.826 0.76087 3.97818 2.28261 2.45644C3.80435 0.934698 5.65217 0.173828 7.82609 0.173828C9.28261 0.173828 10.6033 0.532524 11.788 1.24992C12.9728 1.96731 13.913 2.91296 14.6087 4.08687H26.087L30 7.99992L24.1304 13.8695L21.5217 11.913L18.913 13.8695L16.1413 11.913H14.6087C13.913 13.0869 12.9728 14.0325 11.788 14.7499C10.6033 15.4673 9.28261 15.826 7.82609 15.826ZM7.82609 13.2173C9.04348 13.2173 10.1141 12.8477 11.038 12.1086C11.962 11.3695 12.5761 10.4347 12.8804 9.30426H16.9565L18.8478 10.6412L21.5217 8.65209L23.837 10.4456L26.2826 7.99992L24.9783 6.69557H12.8804C12.5761 5.56513 11.962 4.63035 11.038 3.89122C10.1141 3.15209 9.04348 2.78252 7.82609 2.78252C6.3913 2.78252 5.16304 3.29339 4.1413 4.31513C3.11957 5.33687 2.6087 6.56513 2.6087 7.99992C2.6087 9.4347 3.11957 10.663 4.1413 11.6847C5.16304 12.7064 6.3913 13.2173 7.82609 13.2173Z" fill="#1C1B1F"/>
</svg>
